<svg width="276" height="265" viewBox="0 0 276 265" fill="none" xmlns="http://www.w3.org/2000/svg">
<path d="M138.069 0.574463C61.9308 0.574463 0.137695 59.6514 0.137695 132.443C0.137695 205.234 61.9308 264.311 138.069 264.311C214.207 264.311 276 205.234 276 132.443C276 59.6514 214.207 0.574463 138.069 0.574463ZM151.862 224.75H124.276V198.377H151.862V224.75ZM180.414 122.552L168 134.684C158.069 144.311 151.862 152.223 151.862 172.003H124.276V165.41C124.276 150.904 130.483 137.717 140.414 128.091L157.517 111.476C162.62 106.728 165.655 100.135 165.655 92.8822C165.655 78.3767 153.241 66.5085 138.069 66.5085C122.896 66.5085 110.483 78.3767 110.483 92.8822H82.8963C82.8963 63.7393 107.586 40.1349 138.069 40.1349C168.551 40.1349 193.241 63.7393 193.241 92.8822C193.241 104.487 188.276 115.036 180.414 122.552Z" fill="#00A2F4"/>
</svg>
