<svg width="248" height="249" viewBox="0 0 248 249" fill="none" xmlns="http://www.w3.org/2000/svg">
<path d="M124.198 0C55.9277 0 0.643555 55.6074 0.643555 124.124C0.643555 192.64 55.9277 248.247 124.198 248.247C192.592 248.247 248 192.64 248 124.124C248 55.6074 192.592 0 124.198 0ZM209.907 74.4742H173.422C169.464 58.9588 163.775 44.0639 156.354 30.2862C179.111 38.106 198.034 53.9938 209.907 74.4742ZM124.322 25.3212C134.587 40.2161 142.626 56.7245 147.944 74.4742H100.699C106.017 56.7245 114.056 40.2161 124.322 25.3212ZM28.5948 148.948C26.616 141.005 25.3792 132.688 25.3792 124.124C25.3792 115.559 26.616 107.243 28.5948 99.299H70.398C69.4086 107.491 68.6665 115.683 68.6665 124.124C68.6665 132.564 69.4086 140.756 70.398 148.948H28.5948ZM38.7364 173.773H75.2215C79.1792 189.289 84.8684 204.183 92.2891 217.961C69.5323 210.141 50.6095 194.378 38.7364 173.773ZM75.2215 74.4742H38.7364C50.6095 53.8697 69.5323 38.106 92.2891 30.2862C84.8684 44.0639 79.1792 58.9588 75.2215 74.4742ZM124.322 222.926C114.056 208.031 106.017 191.523 100.699 173.773H147.944C142.626 191.523 134.587 208.031 124.322 222.926ZM153.262 148.948H95.381C94.2679 140.756 93.4022 132.564 93.4022 124.124C93.4022 115.683 94.2679 107.367 95.381 99.299H153.262C154.376 107.367 155.241 115.683 155.241 124.124C155.241 132.564 154.376 140.756 153.262 148.948ZM156.354 217.961C163.775 204.183 169.464 189.289 173.422 173.773H209.907C198.034 194.254 179.111 210.141 156.354 217.961ZM178.245 148.948C179.235 140.756 179.977 132.564 179.977 124.124C179.977 115.683 179.235 107.491 178.245 99.299H220.049C222.027 107.243 223.264 115.559 223.264 124.124C223.264 132.688 222.027 141.005 220.049 148.948H178.245Z" fill="#00A2F4"/>
</svg>
