<?xml version="1.0" standalone="no"?>
<!DOCTYPE svg PUBLIC "-//W3C//DTD SVG 20010904//EN"
 "http://www.w3.org/TR/2001/REC-SVG-20010904/DTD/svg10.dtd">
<svg version="1.0" xmlns="http://www.w3.org/2000/svg"
 width="1133.000000pt" height="1143.000000pt" viewBox="0 0 1133.000000 1143.000000"
 preserveAspectRatio="xMidYMid meet">

<g transform="translate(0.000000,1143.000000) scale(0.100000,-0.100000)"
fill="#000000" stroke="none">
<path d="M302 11087 l-302 -302 0 -5080 0 -5080 303 -303 302 -302 98 0 c76 0
97 3 91 13 -6 9 -4 9 7 -1 10 -9 1004 -12 4898 -12 l4885 0 61 58 60 57 -55
-57 -54 -58 79 0 80 0 288 288 287 287 0 5110 0 5110 -115 115 -115 115 -3
-1335 -2 -1335 -3 1340 -2 1340 -168 168 -167 167 -5075 0 -5075 0 -303 -303z
m10200 -564 l278 -278 0 -4543 0 -4544 -264 -259 c-224 -220 -265 -265 -268
-292 -2 -26 -8 -33 -30 -35 -19 -2 -30 3 -38 17 l-11 21 -4517 0 -4517 0 -277
277 -278 278 0 4540 0 4540 277 277 278 278 4545 0 4545 0 277 -277z m566
-9998 l-22 -20 17 21 c16 19 17 87 19 910 l3 889 2 -890 3 -889 -22 -21z
m-10763 -45 c10 -11 16 -20 13 -20 -3 0 -13 9 -23 20 -10 11 -16 20 -13 20 3
0 13 -9 23 -20z m10745 17 c0 -1 -39 -41 -87 -87 l-88 -85 85 88 c79 81 90 92
90 84z m-10665 -87 c27 -27 47 -50 44 -50 -3 0 -27 23 -54 50 -27 28 -47 50
-44 50 3 0 27 -22 54 -50z m120 -110 c27 -27 47 -50 44 -50 -3 0 -27 23 -54
50 -27 28 -47 50 -44 50 3 0 27 -22 54 -50z m10365 7 c0 -1 -37 -38 -82 -82
l-83 -80 80 83 c74 76 85 87 85 79z m-10255 -107 c27 -27 47 -50 44 -50 -3 0
-27 23 -54 50 -27 28 -47 50 -44 50 3 0 27 -22 54 -50z m115 -105 c30 -30 52
-55 49 -55 -2 0 -29 25 -59 55 -30 30 -52 55 -49 55 2 0 29 -25 59 -55z"/>
<path d="M590 5699 l0 -3291 42 34 c24 18 73 58 111 87 l67 53 0 3123 0 3124
-97 74 c-54 40 -104 77 -110 81 -10 6 -13 -654 -13 -3285z"/>
<path d="M10677 8895 l-87 -66 0 -3123 0 -3124 83 -66 c45 -36 85 -66 90 -66
4 0 7 1465 7 3255 0 1790 -2 3255 -3 3255 -2 0 -43 -29 -90 -65z"/>
<path d="M648 3 c28 -2 76 -2 105 0 28 2 5 3 -53 3 -58 0 -81 -1 -52 -3z"/>
<path d="M3252 3 c1347 -2 3549 -2 4895 0 1347 1 245 2 -2447 2 -2692 0 -3794
-1 -2448 -2z"/>
<path d="M10638 3 c23 -2 61 -2 85 0 23 2 4 4 -43 4 -47 0 -66 -2 -42 -4z"/>
</g>
</svg>
